<?xml version="1.0"?>
<svg xmlns="http://www.w3.org/2000/svg" xmlns:xlink="http://www.w3.org/1999/xlink" version="1.1" id="Capa_1" x="0px" y="0px" viewBox="0 0 511.999 511.999" style="enable-background:new 0 0 511.999 511.999;" xml:space="preserve" width="512px" height="512px" class=""><g transform="matrix(0.860058, 0, 0, 0.860058, 35.825, 35.825)"><g>
	<path style="fill:#8DF4FF;" d="M167.522,176.659c-0.7,0-1.408-0.049-2.121-0.15L12.913,154.941   c-8.21-1.161-13.924-8.757-12.763-16.968c1.161-8.209,8.76-13.926,16.968-12.762l152.488,21.567   c8.21,1.161,13.924,8.757,12.763,16.968C181.309,171.243,174.882,176.659,167.522,176.659z" data-original="#8DF4FF"/>
	<path style="fill:#8DF4FF;" d="M131.882,231.621c-0.7,0-1.408-0.049-2.121-0.15l-87.583-12.388   c-8.21-1.161-13.924-8.757-12.763-16.968c1.161-8.21,8.761-13.928,16.968-12.762l87.583,12.388   c8.21,1.161,13.924,8.757,12.763,16.968C145.668,226.205,139.242,231.621,131.882,231.621z" data-original="#8DF4FF"/>
	<path style="fill:#8DF4FF;" d="M126.878,292.587c-0.7,0-1.408-0.049-2.121-0.15l-44.692-6.321   c-8.21-1.161-13.924-8.757-12.763-16.967c1.161-8.21,8.765-13.929,16.968-12.762l44.692,6.321   c8.21,1.161,13.924,8.758,12.763,16.968C140.664,287.171,134.238,292.587,126.878,292.587z" data-original="#8DF4FF"/>
</g><g>
	<path style="fill:#00E0FF;" d="M344.477,176.244c-7.36,0-13.786-5.416-14.847-12.912c-1.161-8.21,4.553-15.806,12.763-16.968   l152.488-21.567c8.216-1.169,15.806,4.553,16.968,12.762c1.161,8.21-4.553,15.806-12.763,16.968l-152.488,21.567   C345.886,176.195,345.176,176.244,344.477,176.244z" data-original="#00E0FF"/>
	<path style="fill:#00E0FF;" d="M380.117,231.206c-7.36,0-13.786-5.416-14.847-12.912c-1.161-8.21,4.553-15.806,12.763-16.968   l87.583-12.388c8.217-1.163,15.807,4.553,16.967,12.762c1.161,8.21-4.553,15.806-12.763,16.968l-87.583,12.388   C381.526,231.156,380.816,231.206,380.117,231.206z" data-original="#00E0FF"/>
	<path style="fill:#00E0FF;" d="M385.121,292.174c-7.36,0-13.786-5.416-14.847-12.912c-1.161-8.21,4.553-15.806,12.763-16.968   l44.692-6.321c8.216-1.164,15.807,4.553,16.967,12.762c1.161,8.21-4.553,15.806-12.763,16.968l-44.692,6.321   C386.53,292.124,385.821,292.174,385.121,292.174z" data-original="#00E0FF"/>
</g><path style="fill:#FFAB00;" d="M398.662,255.995c0,79.228-64.455,143.693-143.683,143.693h-0.01  c-79.228-0.01-143.683-64.465-143.683-143.693s64.455-143.673,143.683-143.683h0.01  C334.207,112.312,398.662,176.767,398.662,255.995z" data-original="#FFAB00"/><path style="fill:#FF7B59;" d="M398.662,255.995c0,79.228-64.455,143.693-143.683,143.693h-0.01V112.312h0.01  C334.207,112.312,398.662,176.767,398.662,255.995z" data-original="#FF7B59"/><path style="fill:#FF2299;" d="M333.876,247.738L306.533,274.4l6.456,37.642c1.071,6.235-1.451,12.421-6.566,16.134  c-2.892,2.102-6.275,3.173-9.688,3.173c-2.622,0-5.255-0.631-7.687-1.912l-33.809-17.775l-0.26,0.14l-33.539,17.635  c-5.605,2.943-12.26,2.462-17.385-1.261c-5.114-3.713-7.637-9.898-6.566-16.134l6.456-37.642l-27.343-26.663  c-4.534-4.414-6.135-10.889-4.184-16.904c1.962-6.025,7.056-10.329,13.321-11.24l37.802-5.495l16.894-34.249  c2.762-5.595,8.317-9.098,14.542-9.198h0.26c6.325,0,12,3.523,14.793,9.198h0.01l16.894,34.249l37.792,5.495  c6.275,0.911,11.37,5.214,13.331,11.24C340.012,236.848,338.41,243.324,333.876,247.738z" data-original="#FF2299" class=""/><path style="fill:#CF3EA4;" d="M333.876,247.738L306.533,274.4l6.456,37.642c1.071,6.235-1.451,12.421-6.566,16.134  c-2.892,2.102-6.275,3.173-9.688,3.173c-2.622,0-5.255-0.631-7.687-1.912l-33.809-17.775l-0.26,0.14V170.652h0.26  c6.325,0,12,3.523,14.793,9.198h0.01l16.894,34.249l37.792,5.495c6.275,0.911,11.37,5.214,13.331,11.24  C340.012,236.848,338.41,243.324,333.876,247.738z" data-original="#CF3EA4" class="active-path"/></g> </svg>
